<?xml version="1.0" encoding="utf-8"?>
<!-- Generator: Adobe Illustrator 27.0.0, SVG Export Plug-In . SVG Version: 6.00 Build 0)  -->
<svg version="1.1" id="Layer_1" xmlns="http://www.w3.org/2000/svg" xmlns:xlink="http://www.w3.org/1999/xlink" x="0px" y="0px"
	 viewBox="0 0 50 50" style="enable-background:new 0 0 50 50;" xml:space="preserve">
<style type="text/css">
	.st0{fill:#2DBBA3;}
</style>
<path class="st0" d="M47.5,28.3c-6.7,5.2-13.3,10.5-20,15.7c-0.2,0.1-0.4,0.3-0.6,0.4c-1.3,0.7-2.9,0.8-4.2,0
	c-0.1-0.1-0.2-0.2-0.4-0.2C15.6,38.8,8.8,33.4,2,28c-2.1-1.7-2.1-4.3,0-6c6.8-5.4,13.5-10.7,20.3-16c1.8-1.4,3.4-1.4,5.2,0.1
	c6.7,5.2,13.3,10.4,20,15.7C50.1,23.8,50.1,26.2,47.5,28.3z"/>
</svg>
