<?xml version="1.0" encoding="utf-8"?>
<!-- Generator: Adobe Illustrator 27.0.0, SVG Export Plug-In . SVG Version: 6.00 Build 0)  -->
<svg version="1.1" id="Layer_1" xmlns="http://www.w3.org/2000/svg" xmlns:xlink="http://www.w3.org/1999/xlink" x="0px" y="0px"
	 viewBox="0 0 50 50" style="enable-background:new 0 0 50 50;" xml:space="preserve">
<style type="text/css">
	.st0{fill:#2DBBA3;}
</style>
<path class="st0" d="M47.2,16.2c-0.1,3,0,5.9,0,8.9c0,3.2,0,6.3,0,9.5c0,2.2-0.9,3.7-2.8,4.8c-5.4,3.1-10.8,6.2-16.1,9.4
	c-1.9,1.1-3.7,1.2-5.7,0.1c-5.4-3.2-10.8-6.3-16.3-9.4c-2-1.1-2.9-2.8-2.8-5.1c0-6.1,0.1-12.2,0-18.4c0-2.4,0.9-4.1,3-5.3
	c5.4-3,10.7-6.1,16.1-9.2c2-1.1,3.8-1.1,5.7,0c5.2,3.1,10.4,6.1,15.7,9.1C46.2,11.9,47.3,13.6,47.2,16.2z"/>
</svg>
