<?xml version="1.0" encoding="utf-8"?>
<!-- Generator: Adobe Illustrator 27.0.0, SVG Export Plug-In . SVG Version: 6.00 Build 0)  -->
<svg version="1.1" id="Layer_1" xmlns="http://www.w3.org/2000/svg" xmlns:xlink="http://www.w3.org/1999/xlink" x="0px" y="0px"
	 viewBox="0 0 50 50" style="enable-background:new 0 0 50 50;" xml:space="preserve">
<style type="text/css">
	.st0{fill:#2DBBA3;}
</style>
<path class="st0" d="M49,22.4c-2.4,7.4-4.8,14.9-7.3,22.3c-0.8,2.4-2.1,3.4-4.7,3.4c-3.9,0-7.9,0-11.8,0l0,0c-3.9,0-7.9,0-11.8,0
	c-2.8,0-3.9-1-4.8-3.6c-2.3-7.2-4.6-14.3-7-21.4c-1.2-3.8-0.9-4.8,2.2-7.1c6-4.4,12-8.8,18-13.2c2.6-1.9,4-1.8,6.6,0
	c6.2,4.5,12.4,9,18.7,13.5C49.4,18.2,49.9,19.6,49,22.4z"/>
</svg>
