<?xml version="1.0" encoding="utf-8"?>
<!-- Generator: Adobe Illustrator 27.0.0, SVG Export Plug-In . SVG Version: 6.00 Build 0)  -->
<svg version="1.1" id="Layer_1" xmlns="http://www.w3.org/2000/svg" xmlns:xlink="http://www.w3.org/1999/xlink" x="0px" y="0px"
	 viewBox="0 0 50 50" style="enable-background:new 0 0 50 50;" xml:space="preserve">
<style type="text/css">
	.st0{fill:#2DBBA3;}
</style>
<path class="st0" d="M44.6,45.9c-6.5,0-13.1,0-19.6,0c-6.3,0-12.7,0-19,0c-1.1,0-2.4-0.2-3.3-0.7c-2-1.1-2.4-3.5-1.1-5.6
	c2.5-4.3,5-8.6,7.5-13c4.1-7.1,8.2-14.3,12.3-21.4C23.1,2,26.8,2,28.6,5.2c5,8.5,9.9,17.1,14.8,25.6c1.6,2.8,3.3,5.7,4.9,8.6
	C50.2,42.7,48.4,45.9,44.6,45.9z"/>
</svg>
