<?xml version="1.0" encoding="utf-8"?>
<!-- Generator: Adobe Illustrator 27.0.0, SVG Export Plug-In . SVG Version: 6.00 Build 0)  -->
<svg version="1.1" id="Layer_1" xmlns="http://www.w3.org/2000/svg" xmlns:xlink="http://www.w3.org/1999/xlink" x="0px" y="0px"
	 viewBox="0 0 50 50" style="enable-background:new 0 0 50 50;" xml:space="preserve">
<style type="text/css">
	.st0{fill:#2EB9A1;}
</style>
<g>
	<path class="st0" d="M49.7,25.6c0,12.8-10.4,23.2-23.2,23.2c-7.6,0-14.7-3.7-19.1-10c-1.2-1.7-0.7-3.9,0.9-5.1
		c1.7-1.2,3.9-0.7,5.1,0.9c3,4.3,7.9,6.8,13.1,6.8c8.8,0,16-7.2,16-16c0-8.8-7.2-16-16-16c-6,0-11.3,3.3-14.1,8.5h6
		c2,0,3.6,1.6,3.6,3.6c0,2-1.6,3.6-3.6,3.6H4.5c-0.4,0-0.8-0.1-1.2-0.2c-1.8-0.2-3.1-1.8-3.1-3.6V5.4c0-2,1.6-3.6,3.6-3.6
		s3.6,1.6,3.6,3.6v6.8c4.3-6.2,11.3-9.9,19-9.9C39.3,2.4,49.7,12.8,49.7,25.6z"/>
</g>
</svg>
